Coordinates
version=1
nRows=12
nColumns=28
inDegrees=yes

Units are S.I. units (second, meters, Newtons, ...)
Angles are in degrees.

endheader
time	pelvis_tilt	pelvis_list	pelvis_rotation	pelvis_tx	pelvis_ty	pelvis_tz	hip_flexion_r	hip_adduction_r	hip_rotation_r	knee_angle_r	ankle_angle_r	subtalar_angle_r	mtp_angle_r	hip_flexion_l	hip_adduction_l	hip_rotation_l	knee_angle_l	socket_flexion	socket_adduction	socket_rotation	socket_tx	socket_ty	socket_tz	foot_flex	lumbar_extension	lumbar_bending	lumbar_rotation
      0.63333333	     -2.55250202	      0.42034989	     10.10470435	     -0.01171329	      0.98851242	      0.26166455	     27.64597567	     -2.30233891	    -10.10152841	     -7.57938089	     10.96986932	    -20.07124968	     -8.97665260	    -17.69485715	     -1.66064806	     18.13022814	     -8.80421116	      0.00000000	      0.00000000	      0.00000000	      0.00000000	      0.00077031	      0.00000000	      7.71347247	     -9.04085243	     -0.59715335	     -6.84689377
      0.63750000	     -2.58456604	      0.49539634	      9.98398235	     -0.01169734	      0.98841893	      0.26184894	     27.81748523	     -2.36210280	    -10.17623229	     -7.84147476	     10.98142645	    -19.84869599	     -8.83702861	    -17.69802986	     -1.54223366	     18.01634518	     -8.78176583	      0.00000000	      0.00000000	      0.00000000	      0.00000000	      0.00089171	      0.00000000	      7.76226170	     -9.02280088	     -0.71224749	     -6.78022193
      0.64166667	     -2.50077580	      0.34459762	     10.07454030	     -0.00523828	      0.98764691	      0.26197844	     27.91564515	     -2.19158440	     -9.97937052	     -8.62854877	     10.63837994	    -19.93999912	     -8.80464615	    -17.91987499	     -1.74677004	     17.99895010	     -9.18415379	      0.00000000	      0.00000000	      0.00000000	      0.00000000	      0.00092247	      0.00000000	      7.64589587	     -9.02583686	     -0.42129695	     -6.83354880
      0.64583333	     -2.40680495	      0.19328179	     10.06068408	      0.00124868	      0.98682046	      0.26228265	     28.10818002	     -1.99130315	     -9.84863228	     -9.60678207	     10.18019001	    -20.05498391	     -8.65561075	    -18.16682577	     -1.92232764	     17.84032117	     -9.57765721	      0.00000000	      0.00000000	      0.00000000	      0.00000000	      0.00094376	      0.00000000	      7.56873864	     -9.02478305	     -0.15188182	     -6.84902414
      0.65000000	     -2.32949262	      0.06141124	     10.13326284	      0.00763123	      0.98610976	      0.26247377	     28.22733193	     -1.82950577	     -9.60509623	    -10.42995717	      9.84391800	    -20.04499100	     -8.60080359	    -18.33508704	     -2.08553250	     17.86854546	    -10.06573670	      0.00000000	      0.00000000	      0.00000000	      0.00000000	      0.00098878	      0.00000000	      7.45719128	     -9.03274051	      0.09371437	     -6.84110327
      0.65416667	     -2.23429287	     -0.09515887	     10.00136680	      0.01426454	      0.98527063	      0.26295374	     28.53163246	     -1.60770705	     -9.59581950	    -11.63648091	      9.27848227	    -20.14827928	     -8.38209993	    -18.58666741	     -2.22491766	     17.54713644	    -10.49126069	      0.00000000	      0.00000000	      0.00000000	      0.00000000	      0.00100436	      0.00000000	      7.33986652	     -9.01703296	      0.36602061	     -6.82313269
      0.65833333	     -2.27183914	     -0.23911158	      9.97045707	      0.02104158	      0.98428364	      0.26317223	     28.88193353	     -1.50334841	     -9.73122766	    -12.62451456	      7.20079917	    -20.86924992	     -1.63661553	    -18.65556564	     -2.34014690	     17.37841140	    -10.99406044	      0.00000000	      0.00000000	      0.00000000	      0.00000000	      0.00100683	      0.00000000	      7.17852686	     -8.83714673	      0.58931093	     -6.62953934
      0.66250000	     -2.15419787	     -0.39301693	      9.91897815	      0.02761769	      0.98364607	      0.26353630	     29.05439567	     -1.29910226	     -9.63214460	    -13.66331164	      6.79277046	    -20.85448949	     -1.62837197	    -18.85009704	     -2.48682895	     17.17966937	    -11.53846010	      0.00000000	      0.00000000	      0.00000000	      0.00000000	      0.00106530	      0.00000000	      6.99745390	     -8.86605481	      0.85893763	     -6.63209366
      0.66666667	     -2.04295084	     -0.55873621	      9.90256772	      0.03408682	      0.98310422	      0.26385109	     29.18605037	     -1.09057647	     -9.47730892	    -14.61014883	      6.44394733	    -20.82041368	     -1.60621357	    -18.97791908	     -2.64055931	     17.07295552	    -12.16590496	      0.00000000	      0.00000000	      0.00000000	      0.00000000	      0.00111564	      0.00000000	      6.78173316	     -8.90279282	      1.14662373	     -6.60743757
      0.67083333	     -1.91870143	     -0.75664893	      9.73995523	      0.04085017	      0.98247130	      0.26434592	     29.41917477	     -0.82285582	     -9.47962189	    -15.79411425	      5.98283156	    -20.80734920	     -1.50627566	    -19.17337114	     -2.79086257	     16.70174543	    -12.75186180	      0.00000000	      0.00000000	      0.00000000	      0.00000000	      0.00115050	      0.00000000	      6.54905147	     -8.89088615	      1.46545321	     -6.54033660
      0.67500000	     -1.80935270	     -0.94779517	      9.68432845	      0.04737893	      0.98200758	      0.26471139	     29.53934636	     -0.57566934	     -9.33710859	    -16.72108935	      5.66989750	    -20.75456053	     -1.41309945	    -19.24537682	     -2.94309799	     16.54148035	    -13.48538371	      0.00000000	      0.00000000	      0.00000000	      0.00000000	      0.00117616	      0.00000000	      6.26554845	     -8.92687389	      1.77055811	     -6.46563964
      0.67916667	     -1.70779411	     -1.19559223	      9.44325335	      0.05430212	      0.98140288	      0.26528362	     29.77390024	     -0.23778499	     -9.32138466	    -17.87799096	      5.25775000	    -20.66570395	     -1.04030011	    -19.38686326	     -3.10570245	     16.03027260	    -14.13163843	      0.00000000	      0.00000000	      0.00000000	      0.00000000	      0.00120944	      0.00000000	      5.96914414	     -8.86663617	      2.12095232	     -6.23102092
